<svg version="1.2" xmlns="http://www.w3.org/2000/svg" viewBox="0 0 3400 1172" width="500" height="172"><style>.a{fill:#2b0548}</style><path fill-rule="evenodd" class="a" d="m227 200.4c3.9 0.2 8.1 1.1 10.5 2.3 2.2 1.1 5.5 3.8 7.4 5.9 1.9 2.2 4 5.4 4.8 7.1 1 2.7 1.3 19.7 1.3 87.5 0 46.4 0.2 85.3 1 88.8h668l0.2-86.8c0.3-86.4 0.3-86.7 2.4-90.7 1.2-2.2 3.5-5.3 5-6.9 1.6-1.5 4.7-3.8 6.9-4.9 3-1.6 5.8-2.2 11.5-2.2 5.7 0 8.5 0.6 11.5 2.2 2.2 1.1 5.7 3.9 7.7 6.2 2.1 2.2 4.3 5.8 4.8 7.8 0.8 2.6 1 118.7 0.5 739.1l-3 4.3c-1.6 2.4-5 5.7-7.3 7.3-3.9 2.8-5.3 3.1-13 3.5-7.2 0.3-9.4 0-12.7-1.7-2.2-1.1-5.4-3.5-7.1-5.4-1.8-1.8-4-4.9-5-6.8-1-2-2-6.9-2.9-19h-668.5l-0.3 8.3c-0.2 7.3-0.6 9-3.2 13.2-1.7 2.7-5 6.3-7.3 7.9-3.9 2.7-5.3 3.1-12.5 3.4-5.6 0.3-9.5-0.1-12.2-1.2-2.4-0.8-6-3.6-8.8-6.8-3.6-4-5-6.5-5.7-10.3-0.7-3.2-0.9-135.1-0.5-735l2.7-4.8c1.6-2.6 4.3-5.8 6-7.2 1.8-1.3 5.1-3.1 7.3-3.9 2.6-1 6.3-1.5 10.5-1.2zm24 338.9c0 52.3 0.2 96.2 0.5 97.5l0.5 2.2h668v-195h-669zm0.5 346.3l668.5 0.5v-195h-669zm2867-354.1c10.9 0.2 18 0.9 22.5 2 3.6 1 10.8 3.8 16 6.3 7.9 3.9 10.9 6.1 18 13.2 7.4 7.3 9.3 10 13.7 19.1 2.8 5.7 6.1 14.3 7.2 19 1.1 4.6 2.5 11.8 3 16 0.6 4.1 1 11.6 1.1 26l-148.5-0.1 0.8 4.3c0.4 2.3 1.7 7 2.8 10.3 1.1 3.2 3.7 8.9 5.9 12.5 2.1 3.5 6.4 9 9.7 12.1 3.2 3.2 8.5 7.4 11.8 9.3 3.3 2 8.9 4.5 12.5 5.7 3.6 1.1 10.3 2.4 15 2.9 5.4 0.6 11.8 0.5 17.5-0.1 4.9-0.6 12.4-2.2 16.5-3.6 4.1-1.3 10.4-4.2 14-6.3 3.6-2.1 8.6-5.7 16-12l7 7.7c3.9 4.3 7 8.1 7 8.5 0 0.4-2.4 2.8-5.3 5.4-2.9 2.6-8.1 6.6-11.7 8.9-3.6 2.4-9.8 5.7-13.8 7.4-4 1.7-11.2 4.1-16 5.3-7.3 1.8-11.4 2.2-25.7 2.2-13.2 0-18.5-0.4-23.5-1.8-3.6-1-9.4-2.8-13-4.2-3.6-1.3-9.2-4-12.5-6-3.3-2-8.2-5.5-11-7.8-2.7-2.3-7.3-7.1-10.2-10.6-3-3.6-7.1-9.9-9.2-14-2.1-4.2-4.8-10.3-5.9-13.5-1.1-3.3-2.6-8.8-3.3-12-0.8-3.6-1.4-12.3-1.4-21.5 0-12.8 0.4-17.1 2.3-24.5 1.3-5 4.1-12.9 6.3-17.5 2.2-4.7 6-11.3 8.3-14.5 2.4-3.3 6.8-8.3 9.7-11.1 3-2.8 7.4-6.4 9.9-8.1 2.5-1.7 7.2-4.4 10.5-6.1 3.3-1.7 9.1-4 13-5.2 3.8-1.2 9.2-2.5 12-3 2.7-0.5 12.2-0.8 21-0.6zm-33.3 29.1c-4.6 2.2-9.6 5.7-14 9.9-3.7 3.5-8.3 9-10.2 12.2-1.9 3.2-4.5 8.6-5.7 11.9-1.2 3.2-2.5 8.3-3 11.2l-0.8 5.3 123.9-0.5c-0.5-7-1.3-11.5-2.1-14.5-0.7-3.1-2.8-8.5-4.6-12-1.7-3.7-5.8-9.4-9.2-12.9-4.4-4.7-8.1-7.4-14-10.3-4.4-2.1-11.2-4.5-15-5.4-3.9-0.8-11.1-1.4-16-1.3-5 0-11.9 0.7-15.5 1.5-3.6 0.8-9.8 3-13.8 4.9zm-2785.2-343.5h155v155h-155zm209 0h154v155h-154zm1205 240h27v256h-27l-0.1-19.3c0-18.3-0.1-19.1-1.6-16.2-0.9 1.6-3.5 5.4-5.7 8.4-2.3 3-7 7.8-10.6 10.8-3.6 3-10.1 7.1-14.5 9.3-4.4 2.1-10.7 4.6-14 5.5-3.6 0.9-11.8 1.8-20 2.2-9.2 0.3-16.5 0.1-21-0.7-3.9-0.7-10.6-2.6-15-4.2-4.4-1.6-11.4-5-15.5-7.6-4.1-2.6-10.5-7.6-14.1-11.2-3.5-3.6-8.6-9.9-11.2-14-2.5-4.2-5.8-10.4-7.2-13.8-1.4-3.4-3.5-10.2-4.7-15-1.9-7.3-2.2-11.5-2.2-25.2 0-13.8 0.3-18 2.2-25.3 1.2-4.8 3.3-11.6 4.7-15 1.4-3.4 4.6-9.4 7-13.2 2.4-3.9 6.4-9.1 8.7-11.7 2.4-2.6 7-6.8 10.3-9.4 3.3-2.6 9.6-6.5 14-8.6 4.4-2.1 11.6-4.8 16-6 6.6-1.8 10.7-2.2 24-2.2 14.6 0 16.8 0.2 25 2.7 4.9 1.5 12.1 4.4 15.8 6.5 3.8 2 9.8 6.4 13.4 9.7 3.6 3.2 8.8 9.1 16.3 20zm-97.5 105.2c-3.5 1.9-9.3 6.6-14 11.2-6 6.1-8.9 9.9-11.7 15.6-2 4.1-4.4 10.4-5.4 14-1.2 4.6-1.8 10.2-1.8 19.5 0 9.3 0.4 14.8 1.7 19.5 1 3.5 3.4 9.8 5.4 14 2.8 5.5 5.8 9.5 11.8 15.5 5.5 5.5 10 8.9 14.5 11.1 3.6 1.7 9.2 4 12.5 5 4.7 1.4 9.1 1.8 20 1.8 12.7 0 14.7-0.3 21.5-2.7 4.2-1.5 9.9-4.2 12.8-6 3-1.8 7.9-5.8 11-9 3.2-3.1 7.4-8.5 9.5-12 2.1-3.4 5-9.8 6.5-14.2 2.4-7.3 2.6-9.4 2.6-23 0-13.5-0.3-15.9-2.7-23-1.4-4.4-4.3-10.9-6.4-14.3-2.1-3.5-6.3-8.9-9.4-12-3.1-3.2-8.5-7.4-12-9.5-3.5-2.1-9.3-4.8-12.9-5.9-4.9-1.6-9.7-2.2-19.5-2.5-10.7-0.3-14.3 0-20.5 1.7-4.1 1.1-10.2 3.5-13.5 5.2zm821.5-90.8c13.8 0.3 20.7 0.9 27 2.4 4.7 1.1 11.5 2.9 15 4.1 3.6 1.2 12 4.8 18.8 8.1 6.7 3.3 12.2 6.5 12.2 7.2 0 0.7-2.5 6.7-11.2 25.3l-6.6-3.8c-3.7-2.1-10.3-5.2-14.7-6.9-4.4-1.7-12.2-4.2-17.5-5.6-7-1.8-13.1-2.6-23.5-3-10.5-0.4-16.1-0.1-22.5 1.1-4.7 0.9-11.5 3.1-15.5 5-4.4 2.2-8.3 5-10.7 7.8-2.1 2.4-4.5 6.6-5.4 9.4-1.2 3.5-1.5 6.8-1.1 11.5 0.4 3.8 1.6 8.5 3.1 11.5 1.3 2.7 4.9 7.2 7.9 10 3.1 2.7 9.1 6.7 13.4 8.8 4.3 2.2 20.4 8.1 35.8 13.1 15.4 5.1 31.2 10.7 35 12.5 3.9 1.7 10 5.1 13.5 7.5 3.6 2.4 8.8 6.8 11.5 9.7 2.8 3 6.5 8.1 8.2 11.4 1.8 3.3 3.9 8.9 4.8 12.5 0.8 3.6 1.5 10.9 1.5 16.5 0 5.8-0.7 12.4-1.6 16-0.8 3.2-3.2 9.1-5.2 13-2.2 4.3-6.2 9.5-10.2 13.5-3.6 3.5-9.4 8.1-13 10.2-3.6 2.1-9.8 5.1-14 6.7-4.1 1.6-11.3 3.7-16 4.7-6.3 1.4-12.9 1.8-26 1.8-13.1 0-19.6-0.4-26-1.8-4.6-1-12.5-3.2-17.5-4.8-4.9-1.7-12.6-4.9-17-7.1-4.4-2.2-11.6-6.4-16-9.3-4.4-2.9-9.9-7.1-16.7-12.9l12.2-24.5 4.3 3.4c2.3 2 7.8 6 12.2 9 4.4 3 12.3 7.5 17.5 9.9 5.3 2.5 14 5.8 19.5 7.3 9.2 2.6 11.5 2.8 27.5 2.8 13.9 0 18.9-0.3 24-1.8 3.6-1 8.8-2.8 11.5-4.1 2.8-1.4 7.2-4.4 9.9-6.7 2.8-2.5 6-6.7 7.5-9.8 2.3-4.8 2.6-6.8 2.6-14.5-0.1-7.4-0.5-10-2.5-14-1.3-2.8-4.7-7.3-7.4-10-3.3-3.3-8.4-6.7-14.6-9.7-5.2-2.6-16.2-6.8-24.5-9.4-8.2-2.5-20.6-6.4-27.5-8.7-6.8-2.2-17.4-6.6-23.5-9.6-8.9-4.6-12.4-7-18.6-13.1-4.7-4.8-8.5-9.6-10.2-13-1.4-3.1-3.3-8.3-4.1-11.5-0.9-3.5-1.6-10.3-1.6-16.3 0-7.9 0.6-11.9 2.3-17.5 1.3-4 3.9-9.7 5.8-12.7 1.9-2.9 6.1-7.9 9.4-11 3.3-3.1 9-7.3 12.5-9.3 3.6-2 9.9-4.8 14-6.1 4.2-1.4 11.1-3.2 15.5-4.1 6-1.1 12.7-1.4 26.5-1.1zm-1312 0.6h53.3c42.4 0 55.1 0.3 62.5 1.5 5.1 0.8 12.9 2.6 17.5 4.1 4.5 1.4 11.3 4.2 15.2 6.2 3.8 2 9.8 6.1 13.4 9.2 3.6 3 8.8 8.8 11.6 13 2.9 4.1 6.2 10.2 7.4 13.5 1.3 3.2 3 8.7 3.9 12 1.3 4.4 1.7 10 1.6 22-0.1 13-0.5 17.4-2.2 24-1.2 4.4-4 11.8-6.3 16.5-3.4 6.9-5.9 10.1-13.3 17.5-7.3 7.2-10.8 9.9-18.1 13.6-4.9 2.5-10 4.8-11.2 5.2-2.2 0.6-1.8 1.4 7.5 14.9 5.3 7.8 17.9 26.2 46.2 67.3l-14.7 0.2c-8.1 0.2-15.2 0.1-15.8-0.1-0.5-0.2-12.2-17.6-51-76.9l-3.5 0.6c-1.9 0.4-19.8 0.6-76 0.7v76h-28zm28 138c78.1-0.6 84.4-0.9 90-2.5 3.6-1 9.7-3.2 13.5-5.1 3.9-1.8 9.3-5.2 12-7.7 2.8-2.4 6.5-6.6 8.2-9.3 1.8-2.7 4.2-7.7 5.4-10.9 1.5-4.3 2.3-9.4 2.6-17.5 0.4-8.7 0.1-13.3-1.1-18.5-0.9-3.9-3.1-9.7-4.9-12.9-1.7-3.3-5.5-8.1-8.4-10.8-2.9-2.7-8.5-6.4-12.5-8.3-4-1.9-10-4.2-13.3-5-3.3-0.9-9.8-2-14.5-2.6-4.6-0.5-23.9-0.9-42.7-0.9h-34.3zm1077-121h27v48h58v22h-58l0.3 55.2c0.3 49.5 0.5 55.7 2 59.8 1 2.4 3 5.8 4.5 7.4 1.5 1.6 4.5 3.7 6.7 4.7 2.6 1.2 6.5 1.8 10.8 1.8 4.6 0 9.2-0.8 14.5-2.5 4.2-1.4 9.2-3.5 11-4.5 2.5-1.5 3.4-1.7 3.9-0.7 0.4 0.7 2.2 5.6 7.3 20.8l-6.7 3.7c-3.7 2-9.9 4.7-13.8 6.1-4.9 1.7-10 2.5-17.5 2.9-6.5 0.3-12.6 0-16-0.7-3-0.7-8.1-2.7-11.4-4.4-3.2-1.7-7.6-5.2-9.8-7.6-2.1-2.5-5-6.8-6.3-9.5-1.3-2.8-3.2-7.8-4.1-11-1.5-5.3-1.8-13-2.4-121.5h-26v-22h26zm346 0h26v48h58v22h-58v50.7c0 28.7 0.5 53.5 1 57 0.6 3.4 1.9 7.9 2.9 10 1.1 2.1 3 4.7 4.3 5.9 1.3 1.3 4 2.9 6.1 3.8 2 0.8 6.4 1.6 9.7 1.6 3.3 0 8.2-0.5 10.8-1.1 2.6-0.5 7.9-2.5 11.7-4.4 3.9-1.9 7.1-3.3 7.1-3.2 0 0.1 1.7 4.9 3.7 10.7 3.5 9.8 3.6 10.5 2 11.8-1 0.8-5.4 3.1-9.8 5.2-4.4 2.1-11.1 4.6-15 5.5-5 1.2-9.9 1.5-17.5 1.2-7.5-0.3-12.1-1-16-2.5-3-1.2-7.5-3.7-10-5.5-2.4-1.9-6.1-5.8-8.1-8.8-2-3-4.7-8.4-8.4-18.4l-0.5-119.5h-27v-22h27zm430 41v28h-6.2c-3.5 0-9.2 0.7-12.8 1.5-3.5 0.9-9.7 3.1-13.7 5-4.9 2.3-9.3 5.5-13.6 9.7-3.4 3.4-7.9 9.2-9.9 12.8-2 3.5-4.6 9.6-5.9 13.5-2.3 6.9-2.3 7.6-2.9 112.5h-27v-182h27v39.5l4.2-7c2.3-3.9 7.1-10 10.8-13.5 3.6-3.6 9-8 12-9.8 3.1-1.8 8.7-4.3 12.5-5.7 3.9-1.3 10-2.9 13.5-3.4 3.6-0.5 7.8-1 12-1.1zm-1560 1.4c13.3 0.3 18 0.8 24 2.5 4.2 1.2 11.1 4.1 15.5 6.4 5.2 2.7 10.7 6.6 15.5 11.3 4.6 4.4 9.4 10.2 12.2 15 2.6 4.3 6.1 11.9 7.7 16.9 1.7 4.9 3.7 13.2 4.6 18.5 0.8 5.2 1.5 14.3 1.5 31h-74c-58.5 0-74 0.2-74 1.2 0 0.7 1 4.6 2.1 8.8 1.1 4.1 3.7 10.6 5.7 14.5 2.4 4.6 6.2 9.5 11.2 14.5 5.6 5.6 9.5 8.5 15 11.2 4.2 2 10.5 4.4 14 5.3 4.4 1.1 10.4 1.7 18.5 1.7 8.8-0.1 14.2-0.6 20-2.2 4.4-1.1 11.6-3.8 16-6 4.4-2.2 10.5-6.2 19-13.9l7.3 7.2c4 3.9 7.2 7.7 7.2 8.4 0 0.7-2.8 3.8-6.3 7-3.5 3.2-10 7.8-14.3 10.2-4.3 2.5-11.5 5.7-15.9 7.2-4.4 1.5-12 3.5-17 4.3-4.9 0.9-13.2 1.6-18.5 1.6-5.2 0-13.4-0.7-18.2-1.5-4.8-0.9-12.5-2.9-17-4.6-4.6-1.7-11.4-5-15.3-7.4-3.8-2.4-9.9-7.2-13.6-10.7-3.6-3.5-8.9-9.9-11.8-14.3-2.8-4.4-6.5-11.4-8-15.5-1.6-4.2-3.7-11.1-4.7-15.5-1.3-5.9-1.7-12.2-1.7-23 0.1-13 0.4-16.4 2.7-25 1.5-5.5 4.4-13.6 6.5-18 2.2-4.4 6.6-11.4 9.8-15.5 3.3-4.2 8.8-9.9 12.4-12.7 3.5-2.8 9.4-6.7 12.9-8.7 3.6-1.9 9.9-4.7 14-6 4.2-1.4 10-3 13-3.6 3.1-0.5 13-0.8 22-0.6zm-29.5 27.2c-2.7 1.1-7.6 3.7-10.9 5.9-3.3 2.2-8.1 6.4-10.8 9.5-2.6 3-6.3 8.4-8.2 12-1.9 3.5-4.4 9.8-5.5 14-1.1 4.1-2.1 8.2-2.1 9.2 0 1.6 3.6 1.8 62 1.8h62c-0.8-8.2-1.8-13-2.6-16-0.9-3.1-3-8.3-4.6-11.5-1.7-3.3-5.4-8.5-8.2-11.4-2.8-3-7.4-7-10.3-8.8-2.9-1.8-8.8-4.5-13-6-6.2-2.1-10.1-2.7-19.3-3-7.4-0.2-13.6 0.2-17.5 1.1-3.3 0.7-8.2 2.2-11 3.2zm384.4-27.6h27.1l0.3 58.7c0.3 57.2 0.3 58.9 2.4 65.3 1.2 3.5 4 9.2 6.2 12.5 2.2 3.2 5.5 7.1 7.3 8.6 1.8 1.4 5.6 3.8 8.3 5.2 2.8 1.4 8 3.2 11.5 4.1 3.6 0.8 9.9 1.5 14 1.5 4.2 0.1 10.9-0.8 15-1.8 4.2-1.1 10.5-3.4 14-5.2 4.2-2.1 8.9-5.6 13.3-10.1 4.6-4.7 7.8-9.1 10.2-14.1 1.9-4 4.2-10.2 5.2-13.7 1.5-5.8 1.7-12.8 2-111h27.3v182h-27l0.1-40.5-2.6 5c-1.5 2.7-4.1 7-5.9 9.5-1.8 2.4-5.7 6.6-8.7 9.3-3 2.7-7.4 6.1-9.9 7.5-2.4 1.4-7.8 3.8-12 5.3-4.1 1.4-11.3 3.2-16 3.9-5.1 0.7-12.7 1-19 0.7-5.7-0.3-13.2-1.3-16.5-2.2-3.3-0.9-8.9-3.1-12.5-4.8-4.5-2.2-8.9-5.6-14.5-11.2-5.6-5.6-9-10-11.2-14.5-1.8-3.6-4.2-10.1-5.4-14.5-2.2-7.9-2.3-9.3-2.6-71.8zm301.8 0.1c8.2-0.1 16.3 0.5 21 1.4 4.3 0.8 11.1 2.6 15.3 4 4.1 1.4 10.8 4.5 15 6.9 4.1 2.4 9.9 6.5 18.3 14.1l-7.2 9.3c-3.9 5-7.4 9.2-7.6 9.2-0.3 0-2.3-1.5-4.4-3.2-2.2-1.8-6.3-4.8-9.3-6.6-2.9-1.7-9.4-4.6-14.3-6.4-7.7-2.7-10.8-3.2-21.5-3.6-9.8-0.4-14.3-0.1-20.5 1.3-4.4 1-11.2 3.4-15 5.4-3.9 2-9.9 6.3-13.5 9.7-3.6 3.4-8.2 9-10.3 12.5-2.1 3.5-5 10-6.4 14.4-2.3 7-2.7 9.7-2.7 22-0.1 10.4 0.3 15.7 1.6 20.5 1 3.6 3.5 9.9 5.5 14 2.3 4.6 6 10 9.9 14 3.4 3.6 9 8.2 12.5 10.3 3.5 2.1 9.3 4.7 12.9 5.8 3.5 1.1 9.8 2.4 14 2.8 4.1 0.4 11.6 0.4 16.7-0.1 5.1-0.4 12.8-1.9 17-3.3 4.3-1.3 10.5-4 13.8-6 3.3-2 8.2-5.9 16-13.6l15.4 16.6-3.3 4c-1.8 2.2-6.2 6.2-9.7 8.9-3.5 2.6-9.4 6.3-12.9 8.1-3.6 1.8-9.3 4.2-12.8 5.4-3.4 1.1-10.2 2.8-15 3.6-4.8 0.8-13 1.5-18.2 1.5-5.3 0-13.5-0.7-18.3-1.5-4.8-0.8-12.4-2.9-17-4.5-4.5-1.7-11.6-5.2-15.7-7.8-4.1-2.6-10.4-7.6-14-11.2-3.6-3.6-8.8-10.1-11.5-14.5-2.7-4.4-6.2-11.1-7.7-15-1.4-3.8-3.4-10.6-4.4-15-1.2-5.5-1.7-12.4-1.7-22 0-9.6 0.5-16.5 1.7-22 1-4.4 3-11.4 4.6-15.5 1.6-4.1 5.1-11 7.9-15.2 2.8-4.3 7.7-10.4 10.8-13.6 3.2-3.2 8.7-7.7 12.3-10.2 3.5-2.4 9.2-5.6 12.5-7.1 3.3-1.5 8.7-3.5 12-4.4 3.3-1 8-2.1 10.5-2.5 2.4-0.4 10.4-0.8 17.7-0.9zm670.8 0c6.6-0.1 15.9 0.6 20.7 1.4 4.8 0.8 12.3 2.8 16.5 4.5 4.3 1.6 10.7 4.7 14.2 6.7 3.5 2.1 10 7.2 14.3 11.3 4.4 4.1 10.1 10.7 12.6 14.5 2.5 3.9 5.8 9.9 7.3 13.5 1.5 3.6 3.8 10.5 5 15.5 1.8 7.4 2.2 11.7 2.2 24-0.1 12.8-0.4 16.5-2.7 25-1.4 5.5-4.6 14-7.1 19-2.5 5-6.8 11.8-9.6 15.3-2.7 3.4-8 8.7-11.7 11.8-3.7 3-11.2 7.8-16.7 10.5-5.5 2.7-13.6 5.9-18 7.1-6.7 1.8-10.9 2.1-25 2.2-14.6 0-18.3-0.3-26-2.2-5-1.3-12.2-3.8-16-5.6-3.9-1.8-10-5.2-13.5-7.6-3.6-2.5-9-7-12-10-3.1-3.1-7.2-8.1-9.2-11.1-2-3-5.3-8.8-7.2-12.9-2-4.1-4.6-11.1-5.7-15.5-1.6-5.8-2.3-12.1-2.6-23-0.4-12.3-0.2-16.7 1.4-24.5 1.1-5.2 3.4-12.9 5.1-17 1.7-4.1 5-10.4 7.3-14 2.3-3.6 7.3-9.7 11.3-13.5 3.9-3.9 10.4-9.2 14.6-11.7 4.1-2.6 10.6-5.9 14.5-7.4 3.8-1.4 10.8-3.4 15.5-4.4 5.3-1.2 13-1.9 20.5-1.9zm-24.5 28.9c-3.1 1.2-8 3.8-11 5.8-3.1 1.9-7.6 5.6-10 8.1-2.5 2.6-6.2 7.3-8.2 10.6-2 3.3-4.9 9.6-6.5 14-2.6 7.5-2.8 9-2.8 24 0 15 0.2 16.5 2.8 24 1.6 4.4 4.2 10.3 5.9 13 1.7 2.8 4.9 7.2 7.2 9.9 2.2 2.7 7.4 7.1 11.6 9.8 4.5 3 10.7 5.9 15.5 7.4 4.6 1.5 11.8 2.8 17 3.1 6.5 0.4 11.3 0.1 17.5-1.1 4.8-1 12-3.4 16.7-5.7 6.3-3 10-5.6 15.6-11.1 4.8-4.8 8.5-9.7 10.9-14.3 2-3.8 4.7-10.6 5.9-15 1.8-6.3 2.3-10.5 2.3-20 0-8.1-0.6-14.1-1.7-18.5-1-3.6-3.6-10.3-5.9-15-3-6.1-6.1-10.3-10.8-15.1-3.6-3.6-9.5-8.2-13-10.1-3.6-2-9.7-4.6-13.5-5.8-4.2-1.2-10.8-2.3-16.5-2.5-5.8-0.3-12.3 0.1-16.5 0.9-3.9 0.8-9.5 2.4-12.5 3.6zm-2033-96h155v155h-155zm-417 1l154.5 0.5 0.5 154.5h-155zm209 0h154v155h-154zm-209 246h155v155h-155zm209 0h154v155h-154z"/></svg>